HIERARCHY
ROOT root
{
	OFFSET 0.000000 0.000000 0.000000
	CHANNELS 6 Xposition Yposition Zposition Zrotation Yrotation Xrotation
	JOINT lhip
	{
		OFFSET 0.058581 -0.082280 -0.017664
		CHANNELS 3 Zrotation Yrotation Xrotation
		JOINT lknee
		{
			OFFSET 0.043451 -0.386469 0.008037
			CHANNELS 3 Zrotation Yrotation Xrotation
			JOINT lankle
			{
				OFFSET -0.014790 -0.426874 -0.037428
				CHANNELS 3 Zrotation Yrotation Xrotation
				JOINT ltoe
				{
					OFFSET 0.041054 -0.060286 0.122042
					CHANNELS 3 Zrotation Yrotation Xrotation
					End Site
					{
						OFFSET 0.000000 0.000000 0.000000
					}
				}
			}
		}
	}
	JOINT rhip
	{
		OFFSET -0.060310 -0.090513 -0.013543
		CHANNELS 3 Zrotation Yrotation Xrotation
		JOINT rknee
		{
			OFFSET -0.043257 -0.383688 -0.004843
			CHANNELS 3 Zrotation Yrotation Xrotation
			JOINT rankle
			{
				OFFSET 0.019056 -0.420046 -0.034562
				CHANNELS 3 Zrotation Yrotation Xrotation
				JOINT rtoe
				{
					OFFSET -0.034840 -0.062106 0.130323
					CHANNELS 3 Zrotation Yrotation Xrotation
					End Site
					{
						OFFSET 0.000000 0.000000 0.000000
					}
				}
			}
		}
	}
	JOINT lowerback
	{
		OFFSET 0.004439 0.124404 -0.038385
		CHANNELS 3 Zrotation Yrotation Xrotation
		JOINT upperback
		{
			OFFSET 0.004488 0.137956 0.026820
			CHANNELS 3 Zrotation Yrotation Xrotation
			JOINT chest
			{
				OFFSET -0.002265 0.056032 0.002855
				CHANNELS 3 Zrotation Yrotation Xrotation
				JOINT lowerneck
				{
					OFFSET -0.013390 0.211636 -0.033468
					CHANNELS 3 Zrotation Yrotation Xrotation
					JOINT upperneck
					{
						OFFSET 0.010113 0.088937 0.050410
						CHANNELS 3 Zrotation Yrotation Xrotation
						End Site
						{
							OFFSET 0.000000 0.000000 0.000000
						}
					}
				}
				JOINT lclavicle
				{
					OFFSET 0.071702 0.114000 -0.018898
					CHANNELS 3 Zrotation Yrotation Xrotation
					JOINT lshoulder
					{
						OFFSET 0.122921 0.045205 -0.019046
						CHANNELS 3 Zrotation Yrotation Xrotation
						JOINT lelbow
						{
							OFFSET 0.255332 -0.015649 -0.022946
							CHANNELS 3 Zrotation Yrotation Xrotation
							JOINT lwrist
							{
								OFFSET 0.265709 0.012698 -0.007375
								CHANNELS 3 Zrotation Yrotation Xrotation
								End Site
								{
									OFFSET 0.000000 0.000000 0.000000
								}
							}
						}
					}
				}
				JOINT rclavicle
				{
					OFFSET -0.082954 0.112472 -0.023707
					CHANNELS 3 Zrotation Yrotation Xrotation
					JOINT rshoulder
					{
						OFFSET -0.113228 0.046853 -0.008472
						CHANNELS 3 Zrotation Yrotation Xrotation
						JOINT relbow
						{
							OFFSET -0.260127 -0.014369 -0.031269
							CHANNELS 3 Zrotation Yrotation Xrotation
							JOINT rwrist
							{
								OFFSET -0.269108 0.006794 -0.006027
								CHANNELS 3 Zrotation Yrotation Xrotation
								End Site
								{
									OFFSET 0.000000 0.000000 0.000000
								}
							}
						}
					}
				}
			}
		}
	}
}
MOTION
Frames: 11
Frame Time: 0.033333
0.996038 3.004267 0.984989 -46.568208 0.425851 86.466651 3.372433 4.786603 9.823273 -4.781747 -0.007095 -5.103485 1.440688 15.012522 -13.482705 0.000000 -0.000000 0.000000 -1.067308 -2.902318 -1.159760 1.290105 -5.416741 15.919530 2.523030 -10.641280 -14.152400 0.000000 -0.000000 0.000000 0.714168 -2.385342 1.327017 0.693169 -2.625978 8.462532 -1.198347 -1.631377 -1.356180 3.427806 0.983390 -4.515877 0.068112 2.328161 11.160292 -27.397141 6.018715 -0.550055 -56.100677 -3.244727 11.919332 6.312935 -30.383058 4.499315 -4.500765 -8.795713 -3.065498 25.874422 0.736805 -0.508140 53.871101 3.668007 15.522068 -4.541667 25.475878 2.166469 5.173753 7.786923 -5.319911 
0.995839 3.004015 0.984946 -46.609956 0.398511 86.525337 3.324824 4.754038 9.779938 -4.772862 0.013604 -5.117896 1.477311 15.065656 -13.476650 0.000000 -0.000000 0.000000 -1.090121 -2.939894 -1.210828 1.346174 -5.212571 15.896356 2.743809 -10.766089 -14.204423 0.000000 -0.000000 0.000000 0.726752 -2.336791 1.123883 0.640386 -2.637888 8.501149 -1.227037 -1.653957 -1.289534 3.375732 1.069768 -4.705175 0.208814 2.391875 11.328927 -27.087615 5.952120 -0.484654 -56.382678 -3.289256 11.887595 6.095413 -29.601044 4.461099 -4.652988 -8.986145 -2.719203 25.947755 0.693486 -0.407013 53.849221 3.828828 15.364544 -4.380782 25.226047 1.893107 5.125962 7.922682 -4.783034 
0.995575 3.003789 0.984913 -46.624238 0.364358 86.642969 3.273070 4.739102 9.639715 -4.778699 0.090374 -5.083273 1.468578 15.049080 -13.489817 0.000000 -0.000000 0.000000 -1.116142 -3.007723 -1.370099 1.337803 -5.184118 15.932834 2.770811 -10.685130 -14.186618 0.000000 -0.000000 0.000000 0.688861 -2.245086 0.792786 0.692651 -2.691629 8.743756 -1.246282 -1.702318 -1.381771 3.298688 1.161905 -4.668452 0.178503 2.311353 11.239617 -26.936656 5.922397 -0.537353 -56.412751 -3.333546 11.937900 5.578433 -28.639128 4.440663 -4.667218 -9.155569 -2.450475 25.971946 0.670807 -0.426236 53.853669 3.853718 15.327218 -4.270171 24.975149 1.783261 5.118493 7.993456 -4.475574 
0.995491 3.003568 0.984954 -46.733642 0.338339 86.748346 3.208837 4.750518 9.519978 -4.780053 0.213153 -5.074364 1.475762 15.085679 -13.474663 0.000000 -0.000000 0.000000 -1.128647 -3.007340 -1.559814 1.330415 -5.114097 16.011076 2.787201 -10.620223 -14.174239 0.000000 -0.000000 0.000000 0.713321 -2.122773 0.540517 0.700533 -2.667732 8.894405 -1.271705 -1.733065 -1.425003 3.261358 1.166872 -4.635986 0.110711 2.250162 11.127209 -26.891344 5.973851 -0.514926 -56.527221 -3.252965 11.911377 5.535535 -27.984162 4.280688 -4.933733 -9.135570 -2.224862 25.977677 0.641776 -0.400729 53.914578 3.851450 15.294390 -4.256612 24.805155 1.677052 5.127924 8.044323 -4.307740 
0.995224 3.003328 0.984946 -46.678811 0.332433 86.642979 3.229120 4.750427 9.661784 -4.798774 0.168840 -5.101351 1.445581 15.081398 -13.481782 0.000000 -0.000000 0.000000 -1.139600 -2.932528 -1.369333 1.354516 -5.175751 15.922007 2.783456 -10.674878 -14.193526 0.000000 -0.000000 0.000000 0.719471 -2.144349 0.575953 0.665202 -2.640487 8.885591 -1.250314 -1.775408 -1.326613 3.285291 1.182520 -4.680052 0.080388 2.228927 11.133263 -26.849902 5.973202 -0.400106 -56.626362 -3.230885 11.776887 5.567095 -27.735446 4.320740 -5.021309 -9.104141 -2.248817 25.959216 0.633595 -0.364414 53.992453 3.864915 15.264950 -4.271766 24.741006 1.725295 5.124106 8.007667 -4.341657 
0.994805 3.003106 0.984899 -46.555394 0.330989 86.421379 3.285443 4.763389 9.947552 -4.827697 0.079159 -5.142873 1.398805 15.054615 -13.501412 0.000000 -0.000000 0.000000 -1.156995 -2.815504 -0.976162 1.398383 -5.302583 15.753059 2.771471 -10.776546 -14.226174 0.000000 -0.000000 0.000000 0.718699 -2.213456 0.747567 0.607376 -2.591823 8.815211 -1.208594 -1.834520 -1.157444 3.361540 1.206085 -4.761389 0.070107 2.200971 11.170548 -26.808802 5.980205 -0.227172 -56.707866 -3.206697 11.587768 5.545627 -27.531220 4.501262 -5.071980 -9.103181 -2.329364 25.957590 0.608853 -0.365383 54.085117 3.859076 15.235441 -4.299632 24.631370 1.846762 5.161139 7.987520 -4.431863 
0.994786 3.003158 0.984825 -46.574237 0.310520 86.406699 3.274038 4.774527 9.968830 -4.846725 0.095586 -5.147103 1.385678 15.066906 -13.492428 0.000000 -0.000000 0.000000 -1.185925 -2.781767 -0.951371 1.411304 -5.313972 15.732464 2.782521 -10.780598 -14.209258 0.000000 -0.000000 0.000000 0.729653 -2.166809 0.713345 0.593843 -2.553833 8.860463 -1.208369 -1.870306 -1.132050 3.409304 1.208589 -4.763096 0.076599 2.183999 11.141649 -26.802570 6.000770 -0.160698 -56.741555 -3.152337 11.557519 5.486879 -27.281628 4.539519 -5.170145 -9.131775 -2.294493 25.976102 0.591973 -0.379331 54.136800 3.850789 15.219728 -4.315735 24.505903 1.846695 5.187176 7.999342 -4.406649 
0.994831 3.003294 0.984802 -46.546641 0.297025 86.414841 3.270172 4.755484 9.942779 -4.869988 0.101688 -5.132176 1.365485 15.076528 -13.473309 0.000000 -0.000000 0.000000 -1.197521 -2.759737 -0.952310 1.418119 -5.334376 15.706194 2.789645 -10.799178 -14.191488 0.000000 -0.000000 0.000000 0.726916 -2.123736 0.681111 0.594497 -2.534279 8.886189 -1.195351 -1.911756 -1.113605 3.455194 1.197552 -4.769475 0.091843 2.151640 11.135312 -26.790340 6.020128 -0.086075 -56.792725 -3.101760 11.537823 5.455785 -27.140085 4.556050 -5.230586 -9.143942 -2.257479 25.994893 0.566564 -0.384234 54.173407 3.838828 15.208884 -4.343868 24.441927 1.852981 5.130732 7.967006 -4.370032 
0.994965 3.003393 0.984820 -46.522916 0.284617 86.421968 3.257191 4.758315 9.916838 -4.885135 0.140034 -5.129191 1.356319 15.053459 -13.455072 0.000000 -0.000000 0.000000 -1.217467 -2.769162 -0.952105 1.425403 -5.351947 15.675900 2.790504 -10.786155 -14.169024 0.000000 -0.000000 0.000000 0.750065 -2.081794 0.654982 0.588854 -2.514097 8.899237 -1.194302 -1.952362 -1.084356 3.492790 1.121680 -4.714112 0.058796 2.070639 11.092099 -26.784020 6.054620 -0.024611 -56.853391 -3.070046 11.524619 5.461787 -27.105020 4.552611 -5.213810 -9.147952 -2.253116 25.996457 0.529573 -0.407453 54.209391 3.829440 15.207390 -4.350862 24.436213 1.867987 5.116080 7.943073 -4.352222 
0.995169 3.003505 0.984889 -46.458264 0.266442 86.431808 3.243329 4.733120 9.864762 -4.912793 0.133683 -5.101340 1.339044 15.038316 -13.427474 0.000000 -0.000000 0.000000 -1.244745 -2.787912 -0.932125 1.445156 -5.373615 15.589561 2.789351 -10.799147 -14.133929 0.000000 -0.000000 0.000000 0.784808 -2.040473 0.627075 0.571132 -2.505457 8.894792 -1.198999 -2.015730 -1.049213 3.528188 1.099474 -4.728661 0.079106 2.043256 11.153421 -26.761332 6.070114 0.056813 -56.921141 -3.068778 11.507035 5.459100 -27.098508 4.582273 -5.210839 -9.108062 -2.318101 26.005238 0.483069 -0.416262 54.236815 3.833890 15.214295 -4.345056 24.494518 1.886746 5.114330 7.920118 -4.412307 
0.995312 3.003647 0.984950 -46.400614 0.249746 86.429132 3.233610 4.722494 9.845926 -4.936175 0.141680 -5.099967 1.329114 15.018034 -13.402470 0.000000 -0.000000 0.000000 -1.266973 -2.789720 -0.903467 1.460289 -5.401491 15.520679 2.789537 -10.810049 -14.105285 0.000000 -0.000000 0.000000 0.806307 -2.008054 0.622123 0.551631 -2.487406 8.872317 -1.202018 -2.062599 -1.014091 3.564375 1.084665 -4.746213 0.101734 2.006222 11.226259 -26.728999 6.057960 0.111982 -56.972272 -3.101285 11.490850 5.461923 -27.121469 4.605108 -5.227442 -9.098107 -2.380370 26.011830 0.448108 -0.425702 54.263385 3.844679 15.218569 -4.352292 24.532804 1.914422 5.145355 7.887184 -4.447406 
